<?xml version="1.0" encoding="UTF-8"?>
<svg width="1440px" height="1024px" viewBox="0 0 1440 1024" version="1.1" xmlns="http://www.w3.org/2000/svg" xmlns:xlink="http://www.w3.org/1999/xlink">
    <!-- Generator: Sketch 49 (51002) - http://www.bohemiancoding.com/sketch -->
    <title>Desktop HD</title>
    <desc>Created with Sketch.</desc>
    <defs></defs>
    <g id="Desktop-HD" stroke="none" stroke-width="1" fill="none" fill-rule="evenodd">
        <path d="M-19,1124.29407 C186.149721,861.270434 316.620919,667.691937 372.413595,543.558573 C428.20627,419.425209 466.625343,237.239018 487.670811,-3 L1458.30625,-3 L1458.30625,1030.45376 L66.7578305,1030.45376" id="Path" fill-opacity="0.5" fill="#D8D8D8"></path>
        <path d="M924.078098,-3 C801.045883,211.097606 727.924779,379.770115 704.714784,503.017524 C681.504789,626.264934 690.071025,800.385277 730.413492,1025.37855 L1437.78705,1025.37855 L1437.78705,-3 L924.078098,-3 Z" id="Path-2" fill-opacity="0.3" fill="#D8D8D8"></path>
        <path d="M1314.42411,-3 C1098.54804,102.728537 1021.68751,328.494005 1083.84252,674.296403 C1145.99753,1020.0988 1264.94031,1193 1440.67085,1193 L1440.67085,-3 L1314.42411,-3 Z" id="Path-3" fill-opacity="0.4" fill="#D8D8D8"></path>
        <path d="M307.786047,-228 C266.762368,-0.360088305 225.934383,169.264722 185.30209,280.87443 C144.669798,392.484139 61.9024342,562.353854 -63,790.483575 L-63,-210.174382 L307.786047,-228 Z" id="Path-4" fill-opacity="0.3" fill="#D8D8D8"></path>
        <path d="M726.787053,-152 C644.273354,148.619164 562.153265,372.624122 480.426787,520.014872 C398.700309,667.405621 232.224713,891.733998 -19,1193 L-19,-128.459654 L726.787053,-152 Z" id="Path-4-Copy" fill-opacity="0.5" fill="#D8D8D8"></path>
    </g>
</svg>