<?xml version="1.0" standalone="no"?><!DOCTYPE svg PUBLIC "-//W3C//DTD SVG 1.1//EN" "http://www.w3.org/Graphics/SVG/1.1/DTD/svg11.dtd"><svg t="1522613767444" class="icon" style="" viewBox="0 0 1024 1024" version="1.1" xmlns="http://www.w3.org/2000/svg" p-id="5263" data-spm-anchor-id="a313x.7781069.0.i18" xmlns:xlink="http://www.w3.org/1999/xlink" width="300" height="300"><defs><style type="text/css"></style></defs><path d="M349.517 354.324c-16.634 0-33.397 10.992-33.397 27.675 0 16.601 16.762 27.724 33.397 27.724 16.65 0 27.691-11.122 27.691-27.724 0-16.714-11.041-27.675-27.691-27.675z" p-id="5264" fill="#4fc332"></path><path d="M576.784 515.166c-11.009 0-22.162 11.122-22.162 22.163 0 11.201 11.153 22.162 22.162 22.162 16.826 0 27.755-10.961 27.755-22.162 0-11.041-10.928-22.163-27.755-22.163z" p-id="5265" fill="#4fc332"></path><path d="M698.75 515.166c-10.961 0-22.050 11.122-22.050 22.163 0 11.201 11.122 22.162 22.050 22.162 16.683 0 27.755-10.961 27.755-22.162 0-11.041-11.074-22.163-27.755-22.163z" p-id="5266" fill="#4fc332"></path><path d="M504.687 409.722c16.762 0 27.772-11.122 27.772-27.724 0-16.683-11.009-27.675-27.772-27.675-16.601 0-33.236 10.961-33.236 27.675 0 16.601 16.683 27.724 33.236 27.724z" p-id="5267" fill="#4fc332"></path><path d="M513.076 71.337c-245.153 0-443.892 198.739-443.892 443.892 0 245.138 198.739 443.876 443.892 443.876 245.138 0 443.876-198.739 443.876-443.876 0-245.153-198.739-443.892-443.876-443.892v0zM421.566 637.261c-27.675 0-49.917-5.641-77.641-11.089l-77.529 38.845 22.162-66.681c-55.526-38.845-88.73-88.842-88.73-149.738 0-105.525 99.851-188.566 221.738-188.566 109.045 0 204.541 66.359 223.73 155.716-7.12-0.772-14.208-1.334-21.424-1.334-105.284 0-188.453 78.622-188.486 175.5 0 16.167 2.539 31.676 6.847 46.511-6.814 0.514-13.692 0.836-20.667 0.836v0zM748.588 714.983l16.683 55.43-60.814-33.349c-22.162 5.561-44.438 11.074-66.519 11.074-105.476 0-188.566-72-188.566-160.891 0-88.601 83.041-160.891 188.566-160.891 99.659 0 188.374 72.241 188.374 160.891 0 50.014-33.203 94.291-77.722 127.737v0z" p-id="5268" fill="#4fc332" data-spm-anchor-id="a313x.7781069.0.i17" class="selected"></path></svg>